<mxfile host="app.diagrams.net" modified="2023-09-25T23:38:22.951Z" agent="Mozilla/5.0 (Windows NT 10.0; Win64; x64) AppleWebKit/537.36 (KHTML, like Gecko) Chrome/116.0.0.0 Safari/537.36" version="21.8.1" etag="-j1I1eLjeIAo3VIEhjlI" type="github">
  <diagram name="PÃ¡gina-1" id="nDr0l4BU3t5uVdgt3nHJ">
    <mxGraphModel>
      <root>
        <mxCell id="0" />
        <mxCell id="1" parent="0" />
      </root>
    </mxGraphModel>
  </diagram>
</mxfile>
